<?xml version="1.0" standalone="no"?>
<!DOCTYPE svg PUBLIC "-//W3C//DTD SVG 20010904//EN"
 "http://www.w3.org/TR/2001/REC-SVG-20010904/DTD/svg10.dtd">
<svg version="1.0" xmlns="http://www.w3.org/2000/svg"
 width="804.000000pt" height="804.000000pt" viewBox="0 0 804.000000 804.000000"
 preserveAspectRatio="xMidYMid meet">

<g transform="translate(0.000000,804.000000) scale(0.100000,-0.100000)"
fill="#000000" stroke="none">
<path d="M0 4020 l0 -4020 4020 0 4020 0 0 4020 0 4020 -4020 0 -4020 0 0
-4020z m4925 3801 c164 -43 334 -147 484 -294 161 -158 258 -295 343 -482 134
-294 183 -557 158 -852 -13 -160 -30 -229 -120 -493 -75 -221 -99 -260 -158
-260 l-27 0 30 -18 c17 -10 47 -40 68 -65 50 -61 150 -258 165 -327 21 -91 26
-204 12 -257 -18 -70 -111 -250 -194 -377 -68 -105 -242 -322 -300 -375 -23
-21 -24 -26 -12 -40 18 -21 33 -79 40 -161 44 -491 77 -746 157 -1205 58 -328
91 -479 166 -739 72 -254 75 -287 28 -336 -66 -69 -193 -48 -226 37 -9 23
-158 594 -216 828 -92 369 -173 901 -173 1133 0 34 -4 62 -8 62 -17 0 -280
-407 -372 -575 -51 -93 -119 -213 -152 -266 -32 -54 -58 -101 -58 -107 0 -25
-100 -100 -175 -131 -131 -55 -623 -305 -665 -339 -5 -4 -1 -12 127 -242 44
-80 108 -202 143 -273 82 -168 109 -201 210 -261 103 -61 140 -93 194 -170
101 -142 161 -298 187 -488 14 -101 9 -121 -27 -116 -24 3 -30 14 -71 128
-120 339 -185 439 -347 534 -50 30 -105 68 -123 86 -17 17 -34 27 -36 23 -3
-5 -17 -59 -31 -121 -14 -61 -43 -154 -65 -206 -100 -234 -327 -571 -503 -744
-82 -81 -254 -209 -291 -218 -39 -8 -85 13 -102 47 -32 62 -15 99 75 163 76
54 211 186 291 286 162 203 373 564 464 795 31 80 50 105 78 105 14 0 18 5 14
18 -18 59 -173 382 -263 548 -28 50 -29 51 -69 47 -22 -3 -59 0 -83 6 -42 12
-59 26 -167 143 -223 241 -366 385 -455 462 -58 49 -155 136 -215 192 -61 57
-147 132 -191 168 -135 108 -162 152 -244 393 -72 211 -91 286 -190 751 -183
860 -165 792 -209 834 -48 46 -86 57 -109 34 -26 -26 -22 -244 7 -350 40 -148
151 -356 258 -484 29 -35 53 -69 53 -76 0 -24 -41 -66 -64 -66 -26 0 -117 90
-188 186 -224 305 -282 854 -96 905 38 10 49 8 113 -17 11 -4 -5 19 -37 54
-126 137 -196 246 -273 426 -96 226 -145 459 -145 687 1 345 79 625 249 894
65 104 145 177 248 227 l88 43 115 -1 c127 0 219 -21 335 -73 54 -25 65 -34
65 -54 0 -38 -22 -51 -64 -37 -79 26 -333 7 -406 -30 -227 -116 -365 -670
-284 -1140 26 -152 109 -383 188 -525 68 -120 259 -356 443 -547 123 -126 123
-127 123 -175 0 -29 -7 -60 -19 -79 -18 -30 -74 -64 -105 -64 -46 0 -134 59
-293 198 -35 30 -63 52 -63 49 0 -12 81 -383 99 -454 11 -43 54 -235 96 -425
97 -446 108 -494 156 -663 74 -261 88 -286 200 -361 39 -26 123 -95 186 -153
63 -58 142 -130 176 -160 56 -48 111 -99 218 -198 33 -31 38 -33 62 -22 34 15
50 3 77 -58 26 -60 163 -192 236 -227 64 -32 88 -31 200 6 47 15 69 28 76 44
10 20 16 23 53 17 40 -5 182 27 210 48 6 4 52 26 104 49 141 61 249 144 360
275 13 15 61 109 108 209 113 242 179 365 337 629 219 365 226 379 270 568 59
247 69 331 75 609 5 231 8 269 24 293 9 15 23 27 30 27 32 -1 42 -22 54 -107
9 -68 11 -73 7 -23 -17 229 -17 256 0 311 18 64 78 135 123 145 56 12 57 13
39 32 -38 43 -39 73 -7 216 59 262 78 603 47 831 -49 352 -242 712 -496 923
-69 57 -252 152 -330 170 -121 29 -373 37 -417 13 -8 -4 26 -40 95 -100 119
-104 263 -256 352 -371 153 -200 293 -488 353 -730 53 -208 62 -282 62 -495 0
-182 -2 -203 -20 -229 -23 -34 -70 -56 -107 -49 -52 10 -67 40 -99 199 -37
183 -64 265 -184 544 -112 260 -120 278 -226 457 -240 406 -441 626 -672 733
-114 52 -155 60 -315 60 -190 0 -355 -34 -526 -107 -100 -42 -159 -43 -164 -2
-4 32 15 45 129 92 46 19 139 60 205 91 154 70 261 101 399 115 171 17 305 -8
480 -89 l82 -37 84 43 c89 46 181 77 270 93 88 16 302 6 394 -18z m-2259
-1187 c18 -20 36 -51 39 -68 12 -60 38 -132 72 -201 67 -134 176 -308 236
-374 33 -36 69 -78 80 -93 44 -60 301 -273 450 -373 41 -27 60 -47 66 -69 15
-60 -18 -118 -76 -132 -48 -12 -234 77 -371 178 -77 57 -204 180 -261 253 -54
68 -198 308 -260 433 -51 102 -74 163 -101 272 -19 73 -20 90 -9 127 13 46 49
83 81 83 11 0 35 -16 54 -36z m2044 -1430 c36 -8 75 -21 87 -30 26 -17 31 -60
9 -89 -11 -16 -20 -17 -72 -9 -76 12 -441 7 -564 -7 -119 -13 -216 -34 -304
-65 -78 -28 -116 -52 -166 -105 -20 -21 -49 -41 -65 -45 -24 -6 -32 -3 -52 22
-29 37 -29 75 1 123 67 106 193 160 454 197 246 34 537 38 672 8z m-1920 -133
c412 -126 569 -247 619 -479 15 -73 14 -251 -3 -347 -27 -152 -76 -312 -111
-362 -32 -46 -112 -37 -139 16 -18 33 -15 68 25 311 28 166 30 354 5 432 -40
124 -195 245 -391 303 -96 29 -145 51 -157 69 -21 32 4 86 40 86 9 0 60 -13
112 -29z m1783 -155 c8 -8 33 -17 57 -19 43 -4 66 -23 50 -42 -5 -6 -64 -11
-148 -13 -158 -2 -464 -48 -507 -76 -35 -23 -69 -97 -60 -135 9 -41 32 -58 91
-66 111 -15 304 60 412 160 60 55 64 57 80 41 16 -16 12 -22 -63 -94 -84 -81
-158 -126 -262 -161 -101 -34 -228 -25 -268 19 -10 11 -28 20 -40 20 -12 0
-32 11 -45 25 -21 22 -22 30 -16 87 12 104 41 155 106 188 51 26 349 67 572
79 15 0 33 -5 41 -13z m-159 -422 c19 -19 20 -36 4 -52 -19 -19 -56 -14 -68 8
-8 15 -6 24 10 40 24 24 34 25 54 4z m-791 -609 c36 -15 87 -67 87 -89 0 -25
-41 -66 -65 -66 -13 0 -35 -5 -49 -11 -51 -23 -88 4 -101 75 -6 32 -3 40 28
71 39 39 50 41 100 20z m-333 -101 c47 -42 54 -90 20 -124 -65 -65 -205 50
-147 122 37 47 76 48 127 2z m730 -393 c14 -10 29 -34 35 -56 8 -32 6 -39 -10
-51 -11 -8 -26 -11 -35 -7 -54 26 -276 -40 -397 -118 -48 -30 -103 -6 -103 47
0 20 -5 24 -30 24 -36 0 -93 -48 -130 -109 -38 -63 -106 -69 -130 -12 -10 24
-9 35 5 64 20 42 107 132 149 154 46 24 133 21 158 -5 l21 -21 67 34 c62 31
180 67 255 78 49 7 118 -4 145 -22z"/>
<path d="M5509 5314 c-24 -25 -24 -28 -24 -217 0 -171 -2 -195 -19 -219 -27
-40 -63 -38 -75 5 -7 24 -9 -2 -10 -104 -1 -209 -26 -421 -71 -604 -11 -44
-18 -81 -16 -82 6 -6 99 116 173 227 81 121 176 297 227 421 42 104 61 232 46
322 -11 70 -60 170 -113 232 -46 54 -80 59 -118 19z"/>
</g>
</svg>
