<?xml version="1.0" standalone="no"?>
<!DOCTYPE svg PUBLIC "-//W3C//DTD SVG 20010904//EN"
 "http://www.w3.org/TR/2001/REC-SVG-20010904/DTD/svg10.dtd">
<svg version="1.0" xmlns="http://www.w3.org/2000/svg"
 width="491.000000pt" height="491.000000pt" viewBox="0 0 491.000000 491.000000"
 preserveAspectRatio="xMidYMid meet">

<g transform="translate(0.000000,491.000000) scale(0.100000,-0.100000)"
fill="#000000" stroke="none">
<path d="M2940 4834 c-80 -9 -149 -28 -213 -60 -62 -31 -69 -33 -90 -20 -12 8
-58 27 -102 42 -149 51 -323 30 -505 -61 -36 -18 -86 -40 -112 -50 -62 -23
-77 -40 -55 -62 15 -15 23 -14 99 15 215 82 392 89 534 21 120 -57 262 -213
392 -430 76 -127 99 -175 176 -358 58 -136 78 -200 97 -301 6 -36 18 -75 25
-87 17 -27 60 -31 90 -9 18 13 19 27 18 178 -1 148 -4 174 -32 281 -33 124
-111 301 -177 401 -54 81 -172 214 -258 289 -86 74 -85 77 31 77 164 -1 285
-47 398 -152 119 -112 198 -241 248 -408 59 -199 60 -386 5 -657 -20 -96 -20
-104 -5 -128 16 -24 15 -25 -3 -25 -53 0 -109 -103 -98 -182 5 -36 4 -38 -18
-32 -17 4 -26 0 -33 -13 -5 -10 -12 -99 -15 -198 -5 -178 -20 -287 -63 -434
-15 -52 -74 -162 -189 -351 -32 -52 -96 -174 -143 -270 -77 -161 -89 -180
-151 -241 -102 -98 -290 -188 -367 -176 -27 5 -39 1 -57 -18 -12 -13 -41 -28
-65 -35 -38 -10 -48 -8 -89 12 -47 24 -123 100 -146 147 -9 18 -20 26 -38 26
-26 0 -86 49 -265 216 -45 42 -106 93 -137 115 -31 21 -65 55 -76 74 -33 59
-78 229 -150 560 -22 102 -59 265 -81 363 -22 98 -40 183 -40 190 0 6 15 -3
33 -19 133 -125 192 -149 242 -99 47 46 36 75 -63 178 -49 51 -125 138 -170
195 -208 262 -279 586 -197 907 27 109 64 184 117 236 45 46 113 63 242 58 80
-4 91 -2 94 14 8 39 -188 96 -288 84 -60 -7 -134 -44 -182 -91 -73 -71 -151
-226 -190 -380 -32 -125 -32 -378 1 -501 46 -175 124 -329 221 -437 50 -56 58
-71 72 -135 l16 -73 -39 6 c-76 13 -109 -37 -109 -167 0 -85 40 -242 80 -318
47 -87 135 -191 163 -191 13 0 28 5 33 10 7 7 15 -7 23 -47 22 -98 81 -275
113 -335 19 -36 52 -76 87 -105 126 -107 332 -296 460 -424 174 -174 193 -189
240 -189 l37 0 73 -148 74 -148 -37 -85 c-65 -150 -204 -373 -303 -487 -30
-34 -88 -90 -129 -123 -55 -44 -74 -67 -74 -84 0 -28 35 -65 61 -65 27 0 168
110 232 181 111 123 268 375 298 477 14 48 19 50 45 21 10 -12 42 -34 69 -50
28 -16 61 -38 74 -50 45 -42 99 -139 141 -254 35 -95 46 -115 62 -115 19 0 20
4 14 62 -20 181 -102 332 -223 409 -37 23 -75 51 -85 63 -9 12 -47 80 -84 151
-36 72 -84 160 -105 197 -21 36 -39 70 -39 75 0 11 36 31 261 144 215 107 246
129 282 192 13 23 56 101 96 172 41 72 112 188 160 259 l86 130 12 -145 c17
-197 55 -413 114 -653 92 -371 120 -470 144 -494 42 -44 127 -23 139 35 4 19
-7 75 -33 163 -21 74 -49 178 -60 230 -58 263 -122 696 -137 920 -3 58 -13
125 -21 149 -13 38 -13 46 -1 55 62 49 215 266 274 390 35 73 36 80 32 161 -4
74 -9 94 -47 171 -24 47 -59 104 -78 125 -20 22 -30 39 -22 39 29 0 52 41 98
184 57 172 71 245 71 366 0 325 -165 656 -416 836 -119 85 -271 131 -394 118z
m625 -1591 c82 -88 98 -214 45 -351 -16 -42 -53 -117 -81 -166 -50 -87 -157
-241 -164 -234 -1 1 6 44 16 93 23 110 42 322 34 373 -5 29 -4 33 5 20 15 -24
37 -23 50 1 5 11 10 71 10 133 0 87 4 119 16 136 20 29 38 28 69 -5z m-2338
-301 c17 -14 29 -54 62 -212 23 -107 46 -214 51 -237 15 -62 14 -78 -5 -63
-25 21 -105 155 -135 227 -32 77 -50 187 -43 256 5 40 9 47 27 47 11 0 31 -8
43 -18z"/>
<path d="M1640 4060 c-26 -63 20 -197 136 -397 54 -92 89 -138 159 -209 159
-160 340 -243 369 -169 16 43 6 64 -51 106 -132 96 -171 128 -254 212 -56 57
-107 122 -143 180 -60 100 -106 197 -106 225 0 9 -9 32 -20 50 -27 44 -72 45
-90 2z"/>
<path d="M2695 3226 c-172 -24 -265 -64 -301 -131 -10 -19 -16 -37 -13 -39 3
-3 30 4 59 15 135 51 372 86 625 92 l100 2 -116 38 c-130 41 -189 45 -354 23z"/>
<path d="M1705 3104 c-27 -28 2 -54 92 -85 120 -40 200 -96 235 -163 28 -52
29 -183 4 -332 -22 -126 -19 -165 13 -181 35 -17 58 -1 83 55 59 139 75 366
31 462 -37 83 -122 151 -245 195 -37 14 -189 64 -195 65 -1 0 -9 -7 -18 -16z"/>
<path d="M2805 3003 c-127 -12 -259 -34 -284 -47 -38 -20 -75 -95 -66 -135 8
-36 29 -55 50 -47 9 3 27 -1 41 -10 35 -23 134 -15 204 17 69 32 170 122 154
138 -8 9 -21 2 -47 -23 -98 -92 -278 -135 -315 -75 -18 28 0 72 33 87 39 18
191 41 298 46 55 3 101 7 104 10 23 23 -85 48 -172 39z"/>
<path d="M2783 2749 c-16 -16 -5 -39 18 -39 24 0 37 29 18 41 -18 11 -23 11
-36 -2z"/>
<path d="M2252 2348 c-17 -17 -15 -73 3 -88 16 -13 81 -6 103 12 20 17 14 45
-14 67 -30 23 -74 27 -92 9z"/>
<path d="M2028 2285 c-9 -19 -8 -29 6 -49 19 -29 62 -44 79 -27 20 20 34 12
47 -30 18 -53 46 -89 70 -89 24 0 41 30 33 58 -6 24 -14 27 -29 12 -7 -7 -18
6 -34 41 -14 29 -35 56 -50 64 -15 8 -32 21 -39 29 -21 26 -69 20 -83 -9z"/>
<path d="M2425 2074 c-32 -8 -83 -28 -113 -45 -43 -24 -57 -28 -68 -18 -9 7
-32 10 -61 6 -40 -4 -54 -12 -90 -50 -44 -46 -54 -82 -31 -105 22 -22 42 -13
86 38 46 53 86 66 112 35 17 -20 46 -19 78 4 30 20 130 55 210 72 28 6 52 14
52 19 0 4 -8 18 -18 30 -23 28 -80 34 -157 14z"/>
<path d="M2436 1804 c-23 -13 -47 -15 -115 -10 -47 3 -103 8 -123 12 -34 6
-38 4 -38 -15 0 -16 11 -27 42 -41 l42 -19 -27 -12 c-31 -14 -37 -49 -9 -49
11 0 43 8 73 19 31 10 83 22 117 26 75 8 115 35 110 74 -4 32 -31 37 -72 15z"/>
</g>
</svg>
